<svg width="68" height="40" viewBox="0 0 68 40" fill="none" xmlns="http://www.w3.org/2000/svg">
<g clip-path="url(#clip0_11_5700)">
<path d="M19.4612 14.5482C19.4612 15.3682 19.5499 16.033 19.705 16.5206C19.8823 17.0081 20.1039 17.54 20.4142 18.1162C20.525 18.2935 20.5693 18.4708 20.5693 18.6259C20.5693 18.8476 20.4363 19.0692 20.1482 19.2908L18.752 20.2216C18.5526 20.3545 18.3531 20.421 18.1758 20.421C17.9542 20.421 17.7326 20.3102 17.511 20.1108C17.2007 19.7783 16.9348 19.4238 16.7132 19.0692C16.4916 18.6924 16.2699 18.2714 16.0262 17.7616C14.2976 19.8005 12.1257 20.8199 9.51064 20.8199C7.64906 20.8199 6.16423 20.2881 5.07831 19.2243C3.9924 18.1605 3.43835 16.7422 3.43835 14.9693C3.43835 13.0855 4.1032 11.5564 5.45506 10.404C6.80692 9.25157 8.60201 8.67537 10.8847 8.67537C11.6382 8.67537 12.4138 8.74186 13.2338 8.85266C14.0538 8.96347 14.8959 9.14076 15.7824 9.34022V7.72242C15.7824 6.03814 15.4278 4.86357 14.7408 4.17656C14.0316 3.48955 12.8349 3.15713 11.1284 3.15713C10.3528 3.15713 9.55496 3.24577 8.73498 3.44523C7.915 3.64468 7.11718 3.88846 6.34153 4.19872C5.98694 4.35385 5.721 4.4425 5.56587 4.48682C5.41074 4.53115 5.29993 4.55331 5.21128 4.55331C4.90102 4.55331 4.74589 4.33169 4.74589 3.8663V2.78038C4.74589 2.42579 4.79021 2.15985 4.90102 2.00472C5.01183 1.84959 5.21128 1.69446 5.52155 1.53933C6.2972 1.14042 7.22799 0.807994 8.31391 0.542054C9.39983 0.253953 10.5522 0.120983 11.7711 0.120983C14.4084 0.120983 16.3364 0.719347 17.5775 1.91607C18.7964 3.1128 19.4169 4.93006 19.4169 7.36783V14.5482H19.4612ZM10.4636 17.9168C11.1949 17.9168 11.9484 17.7838 12.7462 17.5179C13.5441 17.2519 14.2532 16.7644 14.8516 16.0995C15.2062 15.6784 15.4721 15.213 15.6051 14.6812C15.7381 14.1493 15.8267 13.5066 15.8267 12.7531V11.8223C15.184 11.6672 14.497 11.5342 13.7878 11.4456C13.0787 11.3569 12.3917 11.3126 11.7046 11.3126C10.2198 11.3126 9.13389 11.6007 8.40256 12.1991C7.67123 12.7974 7.31664 13.6396 7.31664 14.7477C7.31664 15.7893 7.58258 16.5649 8.13662 17.0968C8.6685 17.6508 9.44415 17.9168 10.4636 17.9168ZM28.2594 20.3102C27.8605 20.3102 27.5945 20.2437 27.4172 20.0886C27.2399 19.9556 27.0848 19.6454 26.9518 19.2243L21.7439 2.09337C21.6109 1.65014 21.5444 1.36203 21.5444 1.2069C21.5444 0.852317 21.7217 0.652862 22.0763 0.652862H24.2481C24.6692 0.652862 24.9573 0.719347 25.1124 0.874479C25.2897 1.00745 25.4227 1.31771 25.5557 1.73878L29.2788 16.4098L32.736 1.73878C32.8468 1.29555 32.9798 1.00745 33.1571 0.874479C33.3344 0.741509 33.6447 0.652862 34.0436 0.652862H35.8165C36.2376 0.652862 36.5257 0.719347 36.703 0.874479C36.8802 1.00745 37.0354 1.31771 37.124 1.73878L40.6256 16.5871L44.4595 1.73878C44.5925 1.29555 44.7476 1.00745 44.9028 0.874479C45.0801 0.741509 45.3681 0.652862 45.7671 0.652862H47.8281C48.1827 0.652862 48.3821 0.830155 48.3821 1.2069C48.3821 1.31771 48.36 1.42852 48.3378 1.56149C48.3156 1.69446 48.2713 1.87175 48.1827 2.11553L42.8417 19.2465C42.7088 19.6897 42.5536 19.9778 42.3763 20.1108C42.199 20.2437 41.9109 20.3324 41.5342 20.3324H39.6283C39.2072 20.3324 38.9191 20.2659 38.7418 20.1108C38.5645 19.9556 38.4094 19.6675 38.3208 19.2243L34.8857 4.93006L31.4728 19.2021C31.362 19.6454 31.229 19.9335 31.0517 20.0886C30.8744 20.2437 30.5642 20.3102 30.1653 20.3102H28.2594ZM56.7371 20.9086C55.5847 20.9086 54.4323 20.7756 53.3242 20.5097C52.2161 20.2437 51.3518 19.9556 50.7756 19.6232C50.421 19.4238 50.1772 19.2021 50.0886 19.0027C49.9999 18.8032 49.9556 18.5816 49.9556 18.3822V17.2519C49.9556 16.7865 50.1329 16.5649 50.4653 16.5649C50.5983 16.5649 50.7313 16.5871 50.8642 16.6314C50.9972 16.6757 51.1967 16.7644 51.4183 16.853C52.1718 17.1854 52.9917 17.4514 53.8561 17.6287C54.7425 17.806 55.6068 17.8946 56.4933 17.8946C57.8895 17.8946 58.9754 17.6508 59.7289 17.1633C60.4824 16.6757 60.8813 15.9665 60.8813 15.0579C60.8813 14.4374 60.6818 13.9277 60.2829 13.5066C59.884 13.0855 59.1305 12.7088 58.0446 12.3542L54.8312 11.3569C53.2134 10.8472 52.0166 10.0937 51.2853 9.09644C50.554 8.12133 50.1772 7.03541 50.1772 5.88301C50.1772 4.95222 50.3767 4.13224 50.7756 3.42307C51.1745 2.71389 51.7064 2.09337 52.3712 1.60581C53.0361 1.09609 53.7896 0.719347 54.676 0.453408C55.5625 0.187468 56.4933 0.0766602 57.4684 0.0766602C57.956 0.0766602 58.4657 0.0988218 58.9532 0.165307C59.4629 0.231792 59.9283 0.320438 60.3937 0.409084C60.837 0.519893 61.258 0.630701 61.6569 0.76367C62.0559 0.89664 62.3661 1.02961 62.5877 1.16258C62.898 1.33987 63.1196 1.51717 63.2526 1.71662C63.3856 1.89391 63.452 2.13769 63.452 2.44795V3.48955C63.452 3.95494 63.2747 4.19872 62.9423 4.19872C62.765 4.19872 62.4769 4.11008 62.1002 3.93278C60.837 3.35658 59.4186 3.06848 57.8451 3.06848C56.5819 3.06848 55.5847 3.26793 54.8976 3.689C54.2106 4.11008 53.8561 4.75276 53.8561 5.66139C53.8561 6.28191 54.0777 6.81379 54.5209 7.23486C54.9641 7.65594 55.7841 8.07701 56.9587 8.45375L60.1056 9.45103C61.7013 9.96074 62.8537 10.6699 63.5407 11.5785C64.2277 12.4872 64.5601 13.5288 64.5601 14.6812C64.5601 15.6341 64.3607 16.4984 63.9839 17.2519C63.585 18.0054 63.0531 18.6703 62.3661 19.2021C61.6791 19.7562 60.8591 20.1551 59.9062 20.4432C58.9089 20.7535 57.8673 20.9086 56.7371 20.9086Z" fill="#252F3E"/>
<path d="M60.9256 31.6791C53.6344 37.0644 43.0412 39.9232 33.9327 39.9232C21.1677 39.9232 9.66577 35.2028 0.978409 27.3576C0.291399 26.7371 0.911924 25.8949 1.7319 26.3825C11.1284 31.8342 22.719 35.1363 34.7084 35.1363C42.7974 35.1363 51.6842 33.452 59.8618 29.9948C61.0807 29.4408 62.1223 30.7926 60.9256 31.6791ZM63.9618 28.2219C63.031 27.0252 57.8008 27.6457 55.4295 27.9338C54.7203 28.0224 54.6095 27.4019 55.2522 26.9365C59.4186 24.0112 66.2666 24.8533 67.0644 25.8284C67.8622 26.8257 66.8428 33.6736 62.9423 36.9536C62.344 37.4633 61.7677 37.1973 62.0337 36.5325C62.9202 34.3385 64.8925 29.3965 63.9618 28.2219Z" fill="#FF9900"/>
</g>
<defs>
<clipPath id="clip0_11_5700">
<rect width="66.6336" height="39.8466" fill="white" transform="translate(0.683212 0.0766602)"/>
</clipPath>
</defs>
</svg>
